<svg width="41" height="41" viewBox="0 0 41 41" fill="none" xmlns="http://www.w3.org/2000/svg">
<rect x="0.407837" y="0.21582" width="40" height="40" rx="8" fill="#005AEB" style="fill:#005AEB;fill:color(display-p3 0.0000 0.3529 0.9216);fill-opacity:1;"/>
<path d="M32.4224 24.804C32.6292 24.6518 32.7923 24.4478 32.8952 24.2125C32.998 23.9772 33.037 23.719 33.0081 23.4638C32.9793 23.2087 32.8836 22.9656 32.7308 22.7593C32.578 22.5529 32.3735 22.3904 32.1379 22.2883V20.2818L30.9649 20.7804V22.2883C30.7291 22.3904 30.5245 22.5528 30.3716 22.7593C30.2187 22.9657 30.123 23.2088 30.0941 23.4641C30.0653 23.7193 30.1043 23.9777 30.2072 24.2131C30.3102 24.4484 30.4734 24.6524 30.6804 24.8045C30.4962 24.9398 30.3464 25.1164 30.243 25.3202C30.1396 25.5239 30.0855 25.7491 30.0851 25.9776V27.4433C30.0851 27.5989 30.1469 27.7481 30.2569 27.8581C30.3668 27.9681 30.516 28.0299 30.6716 28.0299H32.4312C32.5867 28.0299 32.7359 27.9681 32.8459 27.8581C32.9559 27.7481 33.0177 27.5989 33.0177 27.4433V25.977C33.0172 25.7485 32.9631 25.5233 32.8597 25.3196C32.7563 25.1158 32.6065 24.9392 32.4224 24.804Z" fill="white" style="fill:white;fill-opacity:1;"/>
<path d="M29.2052 21.5253V25.8656C29.2084 26.3701 29.0803 26.8669 28.8335 27.307C28.5867 27.7471 28.2297 28.1154 27.7976 28.3759C25.5549 29.6857 23.0045 30.3759 20.4073 30.3759C17.8102 30.3759 15.2598 29.6857 13.0171 28.3759C12.5849 28.1154 12.228 27.7471 11.9812 27.307C11.7344 26.8669 11.6063 26.3701 11.6094 25.8656V21.5253L18.8061 24.5693C19.3131 24.7823 19.8575 24.892 20.4073 24.892C20.9572 24.892 21.5016 24.7823 22.0086 24.5693L29.2052 21.5253Z" fill="white" style="fill:white;fill-opacity:1;"/>
<path d="M33.3321 15.2653L21.5499 10.2798C21.1878 10.1275 20.799 10.049 20.4062 10.049C20.0134 10.049 19.6245 10.1275 19.2625 10.2798L7.4803 15.2653C7.16184 15.4 6.89013 15.6255 6.6991 15.9137C6.50807 16.2019 6.40619 16.5401 6.40619 16.8858C6.40619 17.2316 6.50807 17.5697 6.6991 17.8579C6.89013 18.1462 7.16184 18.3717 7.4803 18.5064L19.2625 23.4919C19.6245 23.6444 20.0134 23.7229 20.4062 23.7229C20.799 23.7229 21.1879 23.6444 21.5499 23.4919L33.3321 18.5064C33.6505 18.3717 33.9223 18.1462 34.1133 17.8579C34.3043 17.5697 34.4062 17.2316 34.4062 16.8858C34.4062 16.5401 34.3043 16.2019 34.1133 15.9137C33.9223 15.6255 33.6505 15.4 33.3321 15.2653Z" fill="white" style="fill:white;fill-opacity:1;"/>
</svg>
